<svg width="36" height="24" viewBox="0 0 36 24" fill="none" xmlns="http://www.w3.org/2000/svg">
<path d="M18.31 1.28906C23.1483 1.28906 27.5062 1.94403 30.6362 2.9873C32.204 3.50991 33.435 4.12057 34.2622 4.77246C35.0951 5.42899 35.4467 6.06571 35.4467 6.64453C35.4467 7.22335 35.0951 7.86007 34.2622 8.5166C33.435 9.16849 32.204 9.77916 30.6362 10.3018C27.5062 11.345 23.1483 12 18.31 12C13.4718 12 9.11384 11.345 5.98386 10.3018C4.41605 9.77916 3.18505 9.16849 2.35788 8.5166C1.52496 7.86007 1.17331 7.22335 1.17331 6.64453C1.17331 6.06571 1.52496 5.42899 2.35788 4.77246C3.18505 4.12057 4.41605 3.50991 5.98386 2.9873C9.11384 1.94403 13.4718 1.28906 18.31 1.28906Z" stroke="black" stroke-width="1.07102"/>
<path d="M18.31 4.50195C23.1483 4.50195 27.5062 5.15692 30.6362 6.2002C32.204 6.7228 33.435 7.33346 34.2622 7.98535C35.0951 8.64188 35.4467 9.2786 35.4467 9.85742C35.4467 10.4362 35.0951 11.073 34.2622 11.7295C33.435 12.3814 32.204 12.992 30.6362 13.5146C27.5062 14.5579 23.1483 15.2129 18.31 15.2129C13.4718 15.2129 9.11384 14.5579 5.98386 13.5146C4.41605 12.992 3.18505 12.3814 2.35788 11.7295C1.52496 11.073 1.17331 10.4362 1.17331 9.85742C1.17331 9.2786 1.52496 8.64188 2.35788 7.98535C3.18505 7.33346 4.41605 6.7228 5.98386 6.2002C9.11384 5.15692 13.4718 4.50195 18.31 4.50195Z" stroke="black" stroke-width="1.07102"/>
<path d="M18.31 7.71484C23.1483 7.71484 27.5062 8.36981 30.6362 9.41309C32.204 9.93569 33.435 10.5464 34.2622 11.1982C35.0951 11.8548 35.4467 12.4915 35.4467 13.0703C35.4467 13.6491 35.0951 14.2859 34.2622 14.9424C33.435 15.5943 32.204 16.2049 30.6362 16.7275C27.5062 17.7708 23.1483 18.4258 18.31 18.4258C13.4718 18.4258 9.11384 17.7708 5.98386 16.7275C4.41605 16.2049 3.18505 15.5943 2.35788 14.9424C1.52496 14.2859 1.17331 13.6491 1.17331 13.0703C1.17331 12.4915 1.52496 11.8548 2.35788 11.1982C3.18505 10.5464 4.41605 9.93569 5.98386 9.41309C9.11384 8.36981 13.4718 7.71484 18.31 7.71484Z" stroke="black" stroke-width="1.07102"/>
<path d="M18.31 12C23.1483 12 27.5062 12.655 30.6362 13.6982C32.204 14.2208 33.435 14.8315 34.2622 15.4834C35.0951 16.1399 35.4467 16.7766 35.4467 17.3555C35.4467 17.9343 35.0951 18.571 34.2622 19.2275C33.435 19.8794 32.204 20.4901 30.6362 21.0127C27.5062 22.056 23.1483 22.7109 18.31 22.7109C13.4718 22.7109 9.11384 22.056 5.98386 21.0127C4.41605 20.4901 3.18505 19.8794 2.35788 19.2275C1.52496 18.571 1.17331 17.9343 1.17331 17.3555C1.17331 16.7766 1.52496 16.1399 2.35788 15.4834C3.18505 14.8315 4.41605 14.2208 5.98386 13.6982C9.11384 12.655 13.4718 12 18.31 12Z" stroke="black" stroke-width="1.07102"/>
</svg>
